<svg xmlns="http://www.w3.org/2000/svg" viewBox="0 0 3293.02 3291.33"><defs><style>.cls-1{fill:#feed6a;}</style></defs><g id="Layer_2" data-name="Layer 2"><g id="Layer_1-2" data-name="Layer 1"><path class="cls-1" d="M2009.37,41.18C1123.28-159.39,244.56,391.87,41.87,1279.27-161.07,2167.7,393.31,3045.71,1281,3250.37c889,200,1767-351.5,1969.87-1236.85C3454.34,1125.86,2901.55,243.12,2009.37,41.18Zm-15.43,1379.09c1.44-63.15,9.5-126.14,14.74-189.2l6.5.64c15.07-83.24,47.5-159.6,93.69-229.86,21.8-33.16,47.45-65.05,85.43-80.17,56.24-22.39,113.39,6.19,137.56,63.58,21.31,50.56,23.63,103.86,20.4,156.66-6.05,98.85-26.57,195.23-68.55,285.59-25.06,53.93-54.06,105.74-101.43,144.7-52.1,42.84-123.71,30-159.1-28.73C2000.16,1505.3,1993,1462.66,1993.94,1420.27ZM1101.82,1073.8c15.15-95.74,46.45-186.29,99-268.55,22.75-35.62,48.89-69.52,87.61-87.85,54.11-25.61,115.28,3.29,140.42,60.86,22,50.31,24,103.45,21.42,156.29-2.34,47.41-11.67,94.47-17.92,141.68-22.46,88.84-54.41,173-110,246.45-22,29-46.33,57.94-84.43,65.93-61.85,13-114.79-22.85-132.74-86C1083.53,1226.53,1089.78,1149.91,1101.82,1073.8ZM2711.77,2357c-21.63,27.21-57.34,36.7-87.1,19.2-16.54-9.72-23.71-6.31-34.46,7.34-50.41,64-98.92,129.92-153.72,190-100.78,110.54-218,200.09-355.33,262.37q-154.56,70.07-323,81.45c-121.54,8-241-7.68-358.84-38.36-118.72-30.9-236-65.76-346.22-120.39a1105.63,1105.63,0,0,1-213-138.2c-75.64-62.38-144.29-131.75-196.95-214.27-44.49-69.71-87.34-141.55-120.75-217-34.17-77.1-57.55-159.19-82.5-240.07-12.79-41.48-19.26-85-27.32-127.8-2.31-12.31-6.56-16.85-19.29-18.57-41.24-5.58-65.06-34-63.69-72.31,1-29.68,29.1-66.7,69.49-68,45.83-1.45,91.5-8.52,137.18-13.71,46-5.23,80.42,18.21,87.61,60,4.88,28.41-11.24,70.44-61.11,79.8-3.06.57-6.08,1.32-10.84,2.37,28.61,162.83,75.76,317,158.1,458.29,89.17,153,210,274.67,366.74,359.6,153.54,83.2,318.67,131.4,489.8,158.37,162.18,25.55,319.86,3.94,468.95-66.46,81.32-38.4,154.78-89.55,221.93-149.71,81.3-72.83,150.62-156,213.67-244.66,7.33-10.32,13.31-21.66,21.21-31.49,7.51-9.34,7.2-16.24,1.49-27.23-27.48-52.92,7.61-111.23,66-106.13,19.66,1.72,40.68,16.77,56.2,31,33.15,30.48,64,63.61,94.09,97.21C2733.32,2295.65,2732.63,2330.76,2711.77,2357Z" transform="translate(0 0)"/></g></g></svg>