<svg xmlns="http://www.w3.org/2000/svg" viewBox="0 0 689.73 689.38"><defs><style>.cls-1{fill:#feed6a;}</style></defs><g id="Layer_2" data-name="Layer 2"><g id="Layer_1-2" data-name="Layer 1"><path class="cls-1" d="M420.87,8.62c-185.6-42-369.65,73.46-412.1,259.32C-33.74,454,82.38,637.93,268.31,680.8c186.2,41.89,370.1-73.63,412.6-259.07C723.52,235.81,607.73,50.92,420.87,8.62Zm-3.24,288.86c.31-13.23,2-26.42,3.09-39.63l1.36.13a128.92,128.92,0,0,1,19.63-48.14c4.56-7,9.93-13.63,17.89-16.79,11.78-4.69,23.75,1.29,28.81,13.31,4.46,10.59,4.95,21.76,4.27,32.82-1.26,20.7-5.56,40.89-14.35,59.81-5.25,11.3-11.33,22.15-21.25,30.31-10.91,9-25.91,6.28-33.32-6C418.94,315.29,417.43,306.36,417.63,297.48ZM230.78,224.91c3.17-20,9.73-39,20.73-56.25,4.76-7.46,10.24-14.56,18.35-18.4C281.19,144.9,294,151,299.27,163c4.6,10.54,5,21.67,4.49,32.73-.5,9.93-2.45,19.79-3.76,29.68C295.3,244,288.61,261.66,277,277c-4.6,6.08-9.7,12.13-17.68,13.81-13,2.71-24.05-4.79-27.81-18C227,256.9,228.26,240.85,230.78,224.91ZM568,493.68c-4.53,5.7-12,7.69-18.24,4-3.46-2-5-1.32-7.22,1.54C532,512.65,521.8,526.45,510.33,539,489.22,562.2,464.67,581,435.9,594a193.72,193.72,0,0,1-67.64,17.06c-25.46,1.68-50.48-1.61-75.16-8-24.87-6.47-49.44-13.77-72.52-25.22A231.57,231.57,0,0,1,176,548.86c-15.84-13.07-30.22-27.6-41.25-44.88-9.32-14.6-18.29-29.65-25.29-45.44-7.16-16.15-12.05-33.34-17.28-50.28-2.68-8.69-4-17.8-5.72-26.77-.49-2.58-1.38-3.53-4-3.89-8.64-1.17-13.63-7.11-13.34-15.15.22-6.21,6.09-14,14.55-14.23,9.6-.31,19.17-1.79,28.73-2.88s16.85,3.82,18.35,12.58c1,5.95-2.35,14.75-12.79,16.71-.64.12-1.28.28-2.27.5,6,34.11,15.86,66.39,33.11,96,18.68,32.06,44,57.53,76.81,75.32,32.16,17.43,66.75,27.52,102.59,33.17,34,5.35,67,.83,98.23-13.92a193.81,193.81,0,0,0,46.48-31.36c17-15.25,31.55-32.67,44.75-51.24,1.54-2.16,2.79-4.54,4.45-6.6s1.5-3.4.31-5.7c-5.76-11.08,1.59-23.3,13.83-22.23,4.12.36,8.52,3.51,11.77,6.5,6.95,6.38,13.41,13.32,19.71,20.36C572.5,480.83,572.35,488.18,568,493.68Z"/></g></g></svg>