<svg xmlns="http://www.w3.org/2000/svg" viewBox="0 0 689.51 689.26"><defs><style>.cls-1{fill:#feed6a;}</style></defs><g id="Layer_2" data-name="Layer 2"><g id="Layer_1-2" data-name="Layer 1"><path class="cls-1" d="M344.16,0C153.87.29.09,153.76,0,344.42-.09,535.29,154,688.79,344.8,689.26c190.85-.53,344.48-154,344.71-344.27A344.16,344.16,0,0,0,344.16,0Zm65,191.55c2.91-7.78,6.66-15.49,13.71-20.35,10.44-7.19,23.45-4,31,6.58,6.71,9.34,9.66,20.12,11.46,31.05,3.37,20.47,3.66,41.1-.7,61.51-2.61,12.18-6.12,24.11-14,34.27-8.65,11.17-23.87,11.88-33.83,1.54-6.48-6.73-9.93-15.1-11.71-23.8-2.64-13-3.93-26.2-5.79-39.33l1.36-.17A128.89,128.89,0,0,1,409.2,191.55Zm-194.59,2.12c3-8.33,6.74-16.47,13.8-22,9.85-7.74,23.69-4.69,31.51,5.9,6.83,9.25,9.72,20,11.64,30.92,1.73,9.79,2,19.83,2.94,29.76-.45,19.19-3.06,37.87-11,55.45-3.14,6.95-6.77,14-14.18,17.39-12,5.53-24.5.68-31.11-11.37-8-14.54-10.25-30.48-11.34-46.58C205.53,232.86,207.71,212.92,214.61,193.67ZM578.5,448.21c-3.83-1.22-5.13-.19-6.69,3.1-7.32,15.42-14.16,31.14-22.55,46-15.43,27.27-35.19,51-60.35,70.12a193.44,193.44,0,0,1-62.16,31.67c-24.45,7.3-49.57,9.65-75.07,8.87-25.68-.79-51.25-2.45-76.31-8.47a231.78,231.78,0,0,1-49.92-18.31c-18.35-9.22-35.6-20.19-50.19-34.59-12.33-12.17-24.43-24.84-34.76-38.68-10.57-14.16-19.16-29.83-28-45.19-4.54-7.87-7.89-16.46-11.53-24.83-1-2.4-2.12-3.13-4.8-2.89-8.68.78-14.87-3.91-16.38-11.8-1.16-6.11,2.84-15,11-17.12,9.29-2.43,18.29-6,27.38-9.18s17.27,0,20.68,8.18c2.32,5.58,1,14.91-8.76,19.14-.6.26-1.18.55-2.11,1,13.43,31.92,30.23,61.2,53.62,86.23,25.34,27.1,55.68,46.32,91.64,56.36,35.22,9.85,71.19,12,107.39,9.55a165.57,165.57,0,0,0,92.67-35.4A194.07,194.07,0,0,0,511.67,501c13.21-18.65,23.5-38.86,32.24-59.9,1-2.45,1.71-5.05,2.87-7.42s.71-3.65-1-5.63c-8.07-9.53-3.62-23.07,8.55-24.75,4.1-.56,9.09,1.53,12.92,3.72,8.19,4.68,16,10,23.74,15.47,5.92,4.2,7.42,11.4,4.38,17.73C592.25,446.79,585.4,450.4,578.5,448.21Z"/></g></g></svg>